<mxfile host="app.diagrams.net" agent="Mozilla/5.0 (Windows NT 10.0; Win64; x64) AppleWebKit/537.36 (KHTML, like Gecko) Chrome/134.0.0.0 Safari/537.36" version="26.2.8">
  <diagram name="Page-1" id="64c3da0e-402f-94eb-ee01-a36477274f13">
    <mxGraphModel dx="1491" dy="771" grid="1" gridSize="10" guides="1" tooltips="1" connect="1" arrows="1" fold="1" page="1" pageScale="1" pageWidth="1169" pageHeight="826" background="none" math="0" shadow="0">
      <root>
        <mxCell id="0" />
        <mxCell id="1" parent="0" />
        <mxCell id="2" value="Amphibious Robotic Duck" style="whiteSpace=wrap;rounded=1;shadow=1;fillColor=#10739E;strokeColor=none;fontColor=#FFFFFF;fontStyle=1;fontSize=24" parent="1" vertex="1">
          <mxGeometry x="800" y="30" width="340" height="60" as="geometry" />
        </mxCell>
        <mxCell id="3" value="1.1 Project Management" style="whiteSpace=wrap;rounded=1;fillColor=#009999;strokeColor=none;shadow=1;fontColor=#FFFFFF;fontStyle=1;fontSize=15;" parent="1" vertex="1">
          <mxGeometry x="410" y="173.4399999999998" width="140" height="60" as="geometry" />
        </mxCell>
        <mxCell id="4" value="1.2 Hardware Design and Assembly" style="whiteSpace=wrap;rounded=1;fillColor=#009999;strokeColor=none;shadow=1;fontColor=#FFFFFF;fontStyle=1;fontSize=15;" parent="1" vertex="1">
          <mxGeometry x="660" y="169.9999999999998" width="140" height="60" as="geometry" />
        </mxCell>
        <mxCell id="6" value="1.3 Software Development" style="whiteSpace=wrap;rounded=1;fillColor=#009999;strokeColor=none;shadow=1;fontColor=#FFFFFF;fontStyle=1;fontSize=15;" parent="1" vertex="1">
          <mxGeometry x="900" y="169.9999999999998" width="140" height="60" as="geometry" />
        </mxCell>
        <mxCell id="7" value="1.4 Integration and Testing" style="whiteSpace=wrap;rounded=1;fillColor=#009999;strokeColor=none;shadow=1;fontColor=#FFFFFF;fontStyle=1;fontSize=15;" parent="1" vertex="1">
          <mxGeometry x="1140" y="169.9999999999998" width="140" height="60" as="geometry" />
        </mxCell>
        <mxCell id="8" value="1.5 Final Deliverables" style="whiteSpace=wrap;rounded=1;fillColor=#009999;strokeColor=none;shadow=1;fontColor=#FFFFFF;fontStyle=1;fontSize=15;" parent="1" vertex="1">
          <mxGeometry x="1380" y="173.4399999999998" width="140" height="60" as="geometry" />
        </mxCell>
        <mxCell id="12" value="1.1.1 Define project goals and success criteria" style="whiteSpace=wrap;rounded=1;fillColor=#4D4D4D;strokeColor=none;shadow=1;fontColor=#FFFFFF;fontSize=14;" parent="1" vertex="1">
          <mxGeometry x="500" y="263.4400000000001" width="120" height="60" as="geometry" />
        </mxCell>
        <mxCell id="38" value="1.1.2 Develop project charter and initial plan" style="whiteSpace=wrap;rounded=1;fillColor=#4D4D4D;strokeColor=none;shadow=1;fontColor=#FFFFFF;fontStyle=0;fontSize=14;" parent="1" vertex="1">
          <mxGeometry x="499.9999999999996" y="343.4400000000001" width="120" height="60" as="geometry" />
        </mxCell>
        <mxCell id="39" value="&#xa;1.1.3 Manage documentation and reporting&#xa;" style="whiteSpace=wrap;rounded=1;fillColor=#4D4D4D;strokeColor=none;shadow=1;fontColor=#FFFFFF;fontStyle=0;fontSize=14;" parent="1" vertex="1">
          <mxGeometry x="500" y="423.44" width="120" height="60" as="geometry" />
        </mxCell>
        <mxCell id="44" value="1.2.1 Select and document required components" style="whiteSpace=wrap;rounded=1;fillColor=#4D4D4D;strokeColor=none;shadow=1;fontColor=#FFFFFF;fontSize=14;" parent="1" vertex="1">
          <mxGeometry x="749.9999999999998" y="260.0000000000001" width="120" height="60" as="geometry" />
        </mxCell>
        <mxCell id="50" value="1.2.2 Design mechanical structure" style="whiteSpace=wrap;rounded=1;fillColor=#4D4D4D;strokeColor=none;shadow=1;fontColor=#FFFFFF;fontStyle=0;fontSize=14;" parent="1" vertex="1">
          <mxGeometry x="749.9999999999993" y="340.0000000000001" width="120" height="60" as="geometry" />
        </mxCell>
        <mxCell id="51" value="1.2.3 Assemble propulsion system" style="whiteSpace=wrap;rounded=1;fillColor=#4D4D4D;strokeColor=none;shadow=1;fontColor=#FFFFFF;fontStyle=0;fontSize=14;" parent="1" vertex="1">
          <mxGeometry x="749.9999999999995" y="420.0000000000001" width="120" height="60" as="geometry" />
        </mxCell>
        <mxCell id="52" value="1.2.4 Integrate sensors" style="whiteSpace=wrap;rounded=1;fillColor=#4D4D4D;strokeColor=none;shadow=1;fontColor=#FFFFFF;fontStyle=0;fontSize=14;" parent="1" vertex="1">
          <mxGeometry x="749.9999999999995" y="500.0000000000001" width="120" height="60" as="geometry" />
        </mxCell>
        <mxCell id="53" value="&lt;br&gt;1.2.5 Integrate power system&lt;br&gt;&lt;br&gt;" style="whiteSpace=wrap;rounded=1;fillColor=#4D4D4D;strokeColor=none;shadow=1;fontColor=#FFFFFF;fontStyle=0;html=1;fontSize=14;" parent="1" vertex="1">
          <mxGeometry x="749.9999999999997" y="580.0000000000001" width="120" height="60" as="geometry" />
        </mxCell>
        <mxCell id="103" value="" style="edgeStyle=elbowEdgeStyle;elbow=vertical;rounded=0;fontColor=#000000;endArrow=none;endFill=0;strokeWidth=8;strokeColor=#23445D;fontSize=14;" parent="1" source="3" edge="1">
          <mxGeometry width="100" height="100" relative="1" as="geometry">
            <mxPoint x="270" y="293.44" as="sourcePoint" />
            <mxPoint x="480" y="273.44" as="targetPoint" />
          </mxGeometry>
        </mxCell>
        <mxCell id="111" value="" style="edgeStyle=elbowEdgeStyle;elbow=horizontal;rounded=0;fontColor=#000000;endArrow=none;endFill=0;strokeWidth=8;strokeColor=#23445D;fontSize=14;" parent="1" target="38" edge="1">
          <mxGeometry width="100" height="100" relative="1" as="geometry">
            <mxPoint x="480" y="273.44" as="sourcePoint" />
            <mxPoint x="490" y="373.4400000000004" as="targetPoint" />
            <Array as="points">
              <mxPoint x="480" y="323.44" />
            </Array>
          </mxGeometry>
        </mxCell>
        <mxCell id="112" value="" style="edgeStyle=elbowEdgeStyle;elbow=horizontal;rounded=0;fontColor=#000000;endArrow=none;endFill=0;strokeWidth=8;strokeColor=#23445D;fontSize=14;" parent="1" source="12" target="39" edge="1">
          <mxGeometry width="100" height="100" relative="1" as="geometry">
            <mxPoint x="490" y="273.4400000000004" as="sourcePoint" />
            <mxPoint x="490" y="453.4400000000004" as="targetPoint" />
            <Array as="points">
              <mxPoint x="480" y="363.44" />
            </Array>
          </mxGeometry>
        </mxCell>
        <mxCell id="113" value="" style="edgeStyle=elbowEdgeStyle;elbow=horizontal;rounded=0;fontColor=#000000;endArrow=none;endFill=0;strokeWidth=8;strokeColor=#23445D;fontSize=14;" parent="1" source="12" edge="1">
          <mxGeometry width="100" height="100" relative="1" as="geometry">
            <mxPoint x="490" y="273.4400000000004" as="sourcePoint" />
            <mxPoint x="480" y="453.44" as="targetPoint" />
            <Array as="points">
              <mxPoint x="480" y="483.44" />
            </Array>
          </mxGeometry>
        </mxCell>
        <mxCell id="114" value="" style="edgeStyle=elbowEdgeStyle;elbow=horizontal;rounded=0;fontColor=#000000;endArrow=none;endFill=0;strokeWidth=8;strokeColor=#23445D;fontSize=14;" parent="1" source="12" edge="1">
          <mxGeometry width="100" height="100" relative="1" as="geometry">
            <mxPoint x="490" y="273.4400000000004" as="sourcePoint" />
            <mxPoint x="480" y="453.44" as="targetPoint" />
            <Array as="points">
              <mxPoint x="480" y="443.44" />
            </Array>
          </mxGeometry>
        </mxCell>
        <mxCell id="115" value="" style="edgeStyle=elbowEdgeStyle;elbow=horizontal;rounded=0;fontColor=#000000;endArrow=none;endFill=0;strokeWidth=8;strokeColor=#23445D;fontSize=14;" parent="1" source="12" edge="1">
          <mxGeometry width="100" height="100" relative="1" as="geometry">
            <mxPoint x="490" y="273.4400000000004" as="sourcePoint" />
            <mxPoint x="480" y="443.44" as="targetPoint" />
            <Array as="points">
              <mxPoint x="480" y="403.44" />
            </Array>
          </mxGeometry>
        </mxCell>
        <mxCell id="123" value="" style="edgeStyle=elbowEdgeStyle;elbow=horizontal;rounded=0;fontColor=#000000;endArrow=none;endFill=0;strokeWidth=8;strokeColor=#23445D;fontSize=14;" parent="1" target="50" edge="1">
          <mxGeometry width="100" height="100" relative="1" as="geometry">
            <mxPoint x="730" y="320" as="sourcePoint" />
            <mxPoint x="729.9999999999995" y="370" as="targetPoint" />
            <Array as="points">
              <mxPoint x="730" y="320" />
            </Array>
          </mxGeometry>
        </mxCell>
        <mxCell id="124" value="" style="edgeStyle=elbowEdgeStyle;elbow=horizontal;rounded=0;fontColor=#000000;endArrow=none;endFill=0;strokeWidth=8;strokeColor=#23445D;fontSize=14;" parent="1" source="44" target="51" edge="1">
          <mxGeometry width="100" height="100" relative="1" as="geometry">
            <mxPoint x="730" y="270" as="sourcePoint" />
            <mxPoint x="729.9999999999998" y="450" as="targetPoint" />
            <Array as="points">
              <mxPoint x="730" y="360" />
            </Array>
          </mxGeometry>
        </mxCell>
        <mxCell id="125" value="" style="edgeStyle=elbowEdgeStyle;elbow=horizontal;rounded=0;fontColor=#000000;endArrow=none;endFill=0;strokeWidth=8;strokeColor=#23445D;fontSize=14;" parent="1" source="44" edge="1">
          <mxGeometry width="100" height="100" relative="1" as="geometry">
            <mxPoint x="730" y="270" as="sourcePoint" />
            <mxPoint x="730" y="610" as="targetPoint" />
            <Array as="points">
              <mxPoint x="730" y="480" />
            </Array>
          </mxGeometry>
        </mxCell>
        <mxCell id="126" value="" style="edgeStyle=elbowEdgeStyle;elbow=horizontal;rounded=0;fontColor=#000000;endArrow=none;endFill=0;strokeWidth=8;strokeColor=#23445D;fontSize=14;" parent="1" source="44" target="53" edge="1">
          <mxGeometry width="100" height="100" relative="1" as="geometry">
            <mxPoint x="730" y="270" as="sourcePoint" />
            <mxPoint x="730" y="610" as="targetPoint" />
            <Array as="points">
              <mxPoint x="730" y="440" />
            </Array>
          </mxGeometry>
        </mxCell>
        <mxCell id="127" value="" style="edgeStyle=elbowEdgeStyle;elbow=horizontal;rounded=0;fontColor=#000000;endArrow=none;endFill=0;strokeWidth=8;strokeColor=#23445D;exitX=0.5;exitY=1;exitDx=0;exitDy=0;fontSize=14;" parent="1" source="4" target="52" edge="1">
          <mxGeometry width="100" height="100" relative="1" as="geometry">
            <mxPoint x="730" y="270" as="sourcePoint" />
            <mxPoint x="729.9999999999998" y="530" as="targetPoint" />
            <Array as="points">
              <mxPoint x="730" y="410" />
            </Array>
          </mxGeometry>
        </mxCell>
        <mxCell id="133" value="1.3.2 Develop basic motor and movement control logic" style="whiteSpace=wrap;rounded=1;shadow=1;html=1;fontSize=14;fillColor=#4D4D4D;fontColor=#FFFFFF;strokeColor=none;" parent="1" vertex="1">
          <mxGeometry x="990" y="260" width="120" height="70" as="geometry" />
        </mxCell>
        <mxCell id="135" value="1.3.3 Implement sensor input and obstacle avoidance" style="whiteSpace=wrap;rounded=1;fillColor=#4D4D4D;strokeColor=none;shadow=1;fontColor=#FFFFFF;fontStyle=0;fontSize=14;" parent="1" vertex="1">
          <mxGeometry x="990" y="350" width="120" height="70" as="geometry" />
        </mxCell>
        <mxCell id="136" value="1.3.4 Implement quacking sound playback" style="whiteSpace=wrap;rounded=1;fillColor=#4D4D4D;strokeColor=none;shadow=1;fontColor=#FFFFFF;fontStyle=0;fontSize=14;" parent="1" vertex="1">
          <mxGeometry x="989.9999999999999" y="440.0000000000001" width="120" height="60" as="geometry" />
        </mxCell>
        <mxCell id="137" value="1.3.5 Develop low battery behavior" style="whiteSpace=wrap;rounded=1;fillColor=#4D4D4D;strokeColor=none;shadow=1;fontColor=#FFFFFF;fontStyle=0;fontSize=14;" parent="1" vertex="1">
          <mxGeometry x="989.9999999999998" y="520.0000000000001" width="120" height="60" as="geometry" />
        </mxCell>
        <mxCell id="145" value="" style="edgeStyle=elbowEdgeStyle;elbow=horizontal;rounded=0;fontColor=#000000;endArrow=none;endFill=0;strokeWidth=8;strokeColor=#23445D;entryX=0;entryY=0.5;entryDx=0;entryDy=0;fontSize=14;" parent="1" source="133" target="135" edge="1">
          <mxGeometry width="100" height="100" relative="1" as="geometry">
            <mxPoint x="970" y="300.00000000000045" as="sourcePoint" />
            <mxPoint x="979.9999999999995" y="400" as="targetPoint" />
            <Array as="points">
              <mxPoint x="970" y="350" />
            </Array>
          </mxGeometry>
        </mxCell>
        <mxCell id="146" value="" style="edgeStyle=elbowEdgeStyle;elbow=horizontal;rounded=0;fontColor=#000000;endArrow=none;endFill=0;strokeWidth=8;strokeColor=#23445D;fontSize=14;" parent="1" source="133" target="136" edge="1">
          <mxGeometry width="100" height="100" relative="1" as="geometry">
            <mxPoint x="980" y="300" as="sourcePoint" />
            <mxPoint x="979.9999999999998" y="480" as="targetPoint" />
            <Array as="points">
              <mxPoint x="970" y="390" />
            </Array>
          </mxGeometry>
        </mxCell>
        <mxCell id="147" value="" style="edgeStyle=elbowEdgeStyle;elbow=horizontal;rounded=0;fontColor=#000000;endArrow=none;endFill=0;strokeWidth=8;strokeColor=#23445D;fontSize=14;" parent="1" source="133" edge="1">
          <mxGeometry width="100" height="100" relative="1" as="geometry">
            <mxPoint x="980" y="300" as="sourcePoint" />
            <mxPoint x="970" y="540" as="targetPoint" />
            <Array as="points">
              <mxPoint x="970" y="520" />
            </Array>
          </mxGeometry>
        </mxCell>
        <mxCell id="148" value="" style="edgeStyle=elbowEdgeStyle;elbow=horizontal;rounded=0;fontColor=#000000;endArrow=none;endFill=0;strokeWidth=8;strokeColor=#23445D;fontSize=14;" parent="1" source="133" edge="1">
          <mxGeometry width="100" height="100" relative="1" as="geometry">
            <mxPoint x="980" y="300" as="sourcePoint" />
            <mxPoint x="970" y="540" as="targetPoint" />
            <Array as="points">
              <mxPoint x="970" y="470" />
            </Array>
          </mxGeometry>
        </mxCell>
        <mxCell id="149" value="" style="edgeStyle=elbowEdgeStyle;elbow=horizontal;rounded=0;fontColor=#000000;endArrow=none;endFill=0;strokeWidth=8;strokeColor=#23445D;fontSize=14;" parent="1" source="133" target="137" edge="1">
          <mxGeometry width="100" height="100" relative="1" as="geometry">
            <mxPoint x="980" y="300" as="sourcePoint" />
            <mxPoint x="979.9999999999998" y="560" as="targetPoint" />
            <Array as="points">
              <mxPoint x="970" y="440" />
            </Array>
          </mxGeometry>
        </mxCell>
        <mxCell id="155" value="1.4.1 Integrate hardware and software systems" style="whiteSpace=wrap;rounded=1;fillColor=#4D4D4D;strokeColor=none;shadow=1;fontColor=#FFFFFF;fontSize=14;" parent="1" vertex="1">
          <mxGeometry x="1229.9999999999998" y="263.4400000000002" width="120" height="60" as="geometry" />
        </mxCell>
        <mxCell id="157" value="1.4.2 Initial dry testing on land" style="whiteSpace=wrap;rounded=1;fillColor=#4D4D4D;strokeColor=none;shadow=1;fontColor=#FFFFFF;fontStyle=0;fontSize=14;" parent="1" vertex="1">
          <mxGeometry x="1229.9999999999998" y="343.4400000000002" width="120" height="60" as="geometry" />
        </mxCell>
        <mxCell id="158" value="1.4.3 Water testing" style="whiteSpace=wrap;rounded=1;fillColor=#4D4D4D;strokeColor=none;shadow=1;fontColor=#FFFFFF;fontStyle=0;fontSize=14;" parent="1" vertex="1">
          <mxGeometry x="1230" y="423.4400000000002" width="120" height="60" as="geometry" />
        </mxCell>
        <mxCell id="159" value="1.4.4 Optimize performance and fix issues" style="whiteSpace=wrap;rounded=1;fillColor=#4D4D4D;strokeColor=none;shadow=1;fontColor=#FFFFFF;fontStyle=0;fontSize=14;" parent="1" vertex="1">
          <mxGeometry x="1229.9999999999998" y="503.4400000000002" width="120" height="60" as="geometry" />
        </mxCell>
        <mxCell id="167" value="" style="edgeStyle=elbowEdgeStyle;elbow=horizontal;rounded=0;fontColor=#000000;endArrow=none;endFill=0;strokeWidth=8;strokeColor=#23445D;fontSize=14;" parent="1" target="157" edge="1">
          <mxGeometry width="100" height="100" relative="1" as="geometry">
            <mxPoint x="1210" y="263.44" as="sourcePoint" />
            <mxPoint x="1219.9999999999995" y="373.4400000000001" as="targetPoint" />
            <Array as="points">
              <mxPoint x="1210" y="323.4400000000001" />
            </Array>
          </mxGeometry>
        </mxCell>
        <mxCell id="168" value="" style="edgeStyle=elbowEdgeStyle;elbow=horizontal;rounded=0;fontColor=#000000;endArrow=none;endFill=0;strokeWidth=8;strokeColor=#23445D;fontSize=14;" parent="1" source="155" target="158" edge="1">
          <mxGeometry width="100" height="100" relative="1" as="geometry">
            <mxPoint x="1220" y="273.4400000000001" as="sourcePoint" />
            <mxPoint x="1219.9999999999998" y="453.4400000000001" as="targetPoint" />
            <Array as="points">
              <mxPoint x="1210" y="363.4400000000001" />
            </Array>
          </mxGeometry>
        </mxCell>
        <mxCell id="169" value="" style="edgeStyle=elbowEdgeStyle;elbow=horizontal;rounded=0;fontColor=#000000;endArrow=none;endFill=0;strokeWidth=8;strokeColor=#23445D;fontSize=14;" parent="1" source="155" edge="1">
          <mxGeometry width="100" height="100" relative="1" as="geometry">
            <mxPoint x="1220" y="273.4400000000001" as="sourcePoint" />
            <mxPoint x="1210" y="533.44" as="targetPoint" />
            <Array as="points">
              <mxPoint x="1210" y="493.4400000000001" />
            </Array>
          </mxGeometry>
        </mxCell>
        <mxCell id="170" value="" style="edgeStyle=elbowEdgeStyle;elbow=horizontal;rounded=0;fontColor=#000000;endArrow=none;endFill=0;strokeWidth=8;strokeColor=#23445D;fontSize=14;" parent="1" source="155" edge="1">
          <mxGeometry width="100" height="100" relative="1" as="geometry">
            <mxPoint x="1220" y="273.4400000000001" as="sourcePoint" />
            <mxPoint x="1210" y="533.44" as="targetPoint" />
            <Array as="points">
              <mxPoint x="1210" y="443.4400000000001" />
            </Array>
          </mxGeometry>
        </mxCell>
        <mxCell id="171" value="" style="edgeStyle=elbowEdgeStyle;elbow=horizontal;rounded=0;fontColor=#000000;endArrow=none;endFill=0;strokeWidth=8;strokeColor=#23445D;fontSize=14;" parent="1" source="155" target="159" edge="1">
          <mxGeometry width="100" height="100" relative="1" as="geometry">
            <mxPoint x="1220" y="273.4400000000001" as="sourcePoint" />
            <mxPoint x="1219.9999999999998" y="533.4400000000002" as="targetPoint" />
            <Array as="points">
              <mxPoint x="1210" y="413.4400000000001" />
            </Array>
          </mxGeometry>
        </mxCell>
        <mxCell id="178" value="1.5.1 Prepare technical documentation" style="whiteSpace=wrap;rounded=1;fillColor=#4D4D4D;strokeColor=none;shadow=1;fontColor=#FFFFFF;" parent="1" vertex="1">
          <mxGeometry x="1469.9999999999998" y="263.4399999999999" width="120" height="60" as="geometry" />
        </mxCell>
        <mxCell id="184" value="1.5.3 Create user and maintenance manual" style="whiteSpace=wrap;rounded=1;fillColor=#4D4D4D;strokeColor=none;shadow=1;fontColor=#FFFFFF;fontStyle=0" parent="1" vertex="1">
          <mxGeometry x="1469.9999999999993" y="343.4399999999999" width="120" height="60" as="geometry" />
        </mxCell>
        <mxCell id="194" value="" style="edgeStyle=elbowEdgeStyle;elbow=horizontal;rounded=0;fontColor=#000000;endArrow=none;endFill=0;strokeWidth=8;strokeColor=#23445D;" parent="1" target="184" edge="1">
          <mxGeometry width="100" height="100" relative="1" as="geometry">
            <mxPoint x="1450" y="323.44" as="sourcePoint" />
            <mxPoint x="1449.9999999999995" y="373.43999999999977" as="targetPoint" />
            <Array as="points">
              <mxPoint x="1450" y="323.43999999999977" />
            </Array>
          </mxGeometry>
        </mxCell>
        <mxCell id="195" value="" style="edgeStyle=elbowEdgeStyle;elbow=horizontal;rounded=0;fontColor=#000000;endArrow=none;endFill=0;strokeWidth=8;strokeColor=#23445D;" parent="1" source="178" edge="1">
          <mxGeometry width="100" height="100" relative="1" as="geometry">
            <mxPoint x="1450" y="273.43999999999977" as="sourcePoint" />
            <mxPoint x="1450" y="373.44" as="targetPoint" />
            <Array as="points">
              <mxPoint x="1450" y="363.43999999999977" />
            </Array>
          </mxGeometry>
        </mxCell>
        <mxCell id="196" value="" style="edgeStyle=elbowEdgeStyle;elbow=horizontal;rounded=0;fontColor=#000000;endArrow=none;endFill=0;strokeWidth=8;strokeColor=#23445D;" parent="1" source="178" edge="1">
          <mxGeometry width="100" height="100" relative="1" as="geometry">
            <mxPoint x="1450" y="273.43999999999977" as="sourcePoint" />
            <mxPoint x="1450" y="373.44" as="targetPoint" />
            <Array as="points">
              <mxPoint x="1450" y="483.43999999999977" />
            </Array>
          </mxGeometry>
        </mxCell>
        <mxCell id="197" value="" style="edgeStyle=elbowEdgeStyle;elbow=horizontal;rounded=0;fontColor=#000000;endArrow=none;endFill=0;strokeWidth=8;strokeColor=#23445D;" parent="1" source="178" edge="1">
          <mxGeometry width="100" height="100" relative="1" as="geometry">
            <mxPoint x="1450" y="273.43999999999977" as="sourcePoint" />
            <mxPoint x="1450" y="373.44" as="targetPoint" />
            <Array as="points">
              <mxPoint x="1450" y="443.43999999999977" />
            </Array>
          </mxGeometry>
        </mxCell>
        <mxCell id="198" value="" style="edgeStyle=elbowEdgeStyle;elbow=horizontal;rounded=0;fontColor=#000000;endArrow=none;endFill=0;strokeWidth=8;strokeColor=#23445D;" parent="1" edge="1">
          <mxGeometry width="100" height="100" relative="1" as="geometry">
            <mxPoint x="1449.58" y="376.88" as="sourcePoint" />
            <mxPoint x="1449.29" y="376.88" as="targetPoint" />
            <Array as="points">
              <mxPoint x="1449.29" y="233.44" />
              <mxPoint x="1439.58" y="446.87999999999977" />
            </Array>
          </mxGeometry>
        </mxCell>
        <mxCell id="222" value="" style="edgeStyle=elbowEdgeStyle;elbow=vertical;rounded=0;fontColor=#000000;endArrow=none;endFill=0;strokeWidth=8;strokeColor=#23445D;exitX=0.5;exitY=1;exitDx=0;exitDy=0;fontSize=14;" parent="1" source="6" edge="1">
          <mxGeometry width="100" height="100" relative="1" as="geometry">
            <mxPoint x="970" y="259.9999999999998" as="sourcePoint" />
            <mxPoint x="970" y="295" as="targetPoint" />
          </mxGeometry>
        </mxCell>
        <mxCell id="224" value="" style="edgeStyle=elbowEdgeStyle;elbow=vertical;rounded=0;fontColor=#000000;endArrow=none;endFill=0;strokeWidth=8;strokeColor=#23445D;exitX=0.5;exitY=1;exitDx=0;exitDy=0;fontSize=14;" parent="1" source="7" edge="1">
          <mxGeometry width="100" height="100" relative="1" as="geometry">
            <mxPoint x="1209.29" y="239.99999999999977" as="sourcePoint" />
            <mxPoint x="1209" y="280" as="targetPoint" />
          </mxGeometry>
        </mxCell>
        <mxCell id="229" value="" style="edgeStyle=elbowEdgeStyle;elbow=vertical;rounded=0;fontColor=#000000;endArrow=none;endFill=0;strokeWidth=8;strokeColor=#23445D;" parent="1" source="2" target="3" edge="1">
          <mxGeometry width="100" height="100" relative="1" as="geometry">
            <mxPoint x="540" y="140" as="sourcePoint" />
            <mxPoint x="640" y="40" as="targetPoint" />
          </mxGeometry>
        </mxCell>
        <mxCell id="230" value="" style="edgeStyle=elbowEdgeStyle;elbow=vertical;rounded=0;fontColor=#000000;endArrow=none;endFill=0;strokeWidth=8;strokeColor=#23445D;" parent="1" source="2" target="4" edge="1">
          <mxGeometry width="100" height="100" relative="1" as="geometry">
            <mxPoint x="550" y="150" as="sourcePoint" />
            <mxPoint x="650" y="50" as="targetPoint" />
          </mxGeometry>
        </mxCell>
        <mxCell id="231" value="" style="edgeStyle=elbowEdgeStyle;elbow=vertical;rounded=0;fontColor=#000000;endArrow=none;endFill=0;strokeWidth=8;strokeColor=#23445D;" parent="1" source="2" target="6" edge="1">
          <mxGeometry width="100" height="100" relative="1" as="geometry">
            <mxPoint x="560" y="160" as="sourcePoint" />
            <mxPoint x="660" y="60" as="targetPoint" />
          </mxGeometry>
        </mxCell>
        <mxCell id="232" value="" style="edgeStyle=elbowEdgeStyle;elbow=vertical;rounded=0;fontColor=#000000;endArrow=none;endFill=0;strokeWidth=8;strokeColor=#23445D;" parent="1" source="2" target="7" edge="1">
          <mxGeometry width="100" height="100" relative="1" as="geometry">
            <mxPoint x="570" y="170" as="sourcePoint" />
            <mxPoint x="670" y="70" as="targetPoint" />
          </mxGeometry>
        </mxCell>
        <mxCell id="233" value="" style="edgeStyle=elbowEdgeStyle;elbow=vertical;rounded=0;fontColor=#000000;endArrow=none;endFill=0;strokeWidth=8;strokeColor=#23445D;" parent="1" source="2" target="8" edge="1">
          <mxGeometry width="100" height="100" relative="1" as="geometry">
            <mxPoint x="580" y="180" as="sourcePoint" />
            <mxPoint x="680" y="80" as="targetPoint" />
          </mxGeometry>
        </mxCell>
        <mxCell id="234" value="" style="edgeStyle=elbowEdgeStyle;elbow=vertical;rounded=0;fontColor=#000000;endArrow=none;endFill=0;strokeWidth=8;strokeColor=#23445D;" parent="1" source="2" edge="1">
          <mxGeometry width="100" height="100" relative="1" as="geometry">
            <mxPoint x="590" y="190" as="sourcePoint" />
            <mxPoint x="1450" y="170" as="targetPoint" />
          </mxGeometry>
        </mxCell>
      </root>
    </mxGraphModel>
  </diagram>
</mxfile>
